# xmcd
#
# Track frame offsets: 
#        150
#        12118
#        37322
#        49753
#        73502
#        88248
#        109971
#        125282
#        144141
#        160752
#        184401
#        197409
#        216710
#        241542
#        249782
#        264554
#        278303
#        296349
#
# Disc length: 4158 seconds
#
# Revision: 0
# Processed by: cddbd v1.5.2PL0 Copyright (c) Steve Scherf et al.
# Submitted via: ExactAudioCopy v0.99pb4
#
DISCID=fc103c12
DTITLE=B.B.King - His Definitive Greatest Hits Disc 2
DYEAR=1999
DGENRE=Blues
TTITLE0=B.B. King - Help the Poor
TTITLE1=B.B. King - So Excited
TTITLE2=B.B. King - Broken Heart
TTITLE3=B.B. King - Ghetto Woman
TTITLE4=B.B. King - Ain't Nobody Home
TTITLE5=B.B. King - Darlin' You Know I Love You
TTITLE6=B.B. King - In the Midnight Hour
TTITLE7=B.B. King - Into the Night
TTITLE8=B.B. King - My Lucille
TTITLE9=B.B. King - The Blues Come over Me
TTITLE10=B.B. King - Since I Met You Baby
TTITLE11=B.B. King - I'm Moving On
TTITLE12=B.B. King - Let the Good Times Roll [Live]
TTITLE13=B.B. King - Woke up This Morning (My Baby's Gone) [Live]
TTITLE14=B.B. King - Three O'Clock Blues [Live]
TTITLE15=B.B. King - Please Love Me [Live]
TTITLE16=B.B. King - Caldonia [Live]
TTITLE17=B.B. King - Rock Me Baby [Live]
EXTD=
EXTT0=
EXTT1=
EXTT2=
EXTT3=
EXTT4=
EXTT5=
EXTT6=
EXTT7=
EXTT8=
EXTT9=
EXTT10=
EXTT11=
EXTT12=
EXTT13=
EXTT14=
EXTT15=
EXTT16=
EXTT17=
PLAYORDER=
